<svg width="158" height="134" viewBox="0 0 158 134" fill="none" xmlns="http://www.w3.org/2000/svg">
<path d="M78.591 133.75L43 53C45.9914 58.5569 51.5911 56.5 58.5911 61.5C65.5911 66.5 78.5911 67 78.5911 67C87.1547 66.2718 88.3045 64.628 95 61.5C101.219 57.2607 108.833 60.0052 113 53L78.591 133.75Z" fill="#E9CFAA"/>
<circle cx="78" cy="38" r="38" fill="#E9CFAA"/>
<circle cx="78" cy="38" r="16" fill="#7E6262" fill-opacity="0.5"/>
<path d="M5.76 31V54.904L16.32 43H16.8L8.976 51.832L19.296 67H15.936L7.056 53.944L5.76 55.432V67H2.4V31H5.76ZM42.2284 67C40.0524 67 38.5644 66.584 37.7644 65.752C37.0284 65.048 36.6604 64.44 36.6604 63.928V62.92C35.0924 65.768 32.5804 67.192 29.1244 67.192C25.0924 67.192 22.8044 65.368 22.2604 61.72C22.1964 61.336 22.1644 60.952 22.1644 60.568C22.1644 60.152 22.2284 59.704 22.3564 59.224C22.4844 58.744 22.8524 58.216 23.4604 57.64C24.6764 56.488 27.3484 55.784 31.4764 55.528C32.5004 55.432 33.4444 55.384 34.3084 55.384C35.1724 55.384 35.9564 55.416 36.6604 55.48V47.512C36.5964 47.48 36.5964 47.336 36.6604 47.08C36.7244 46.792 36.6604 46.44 36.4684 46.024C36.3084 45.576 36.0844 45.144 35.7964 44.728C35.5084 44.312 34.9964 43.96 34.2604 43.672C33.5244 43.352 32.5644 43.192 31.3804 43.192C30.1964 43.192 28.8044 43.416 27.2044 43.864C25.6364 44.28 24.4844 44.696 23.7484 45.112L23.5564 44.776C26.4044 43.464 29.3004 42.808 32.2444 42.808C35.5404 42.808 37.7164 43.4 38.7724 44.584C39.6044 45.512 40.0204 46.488 40.0204 47.512V63.592C40.0204 64.52 40.1964 65.24 40.5484 65.752C40.9324 66.232 41.3164 66.488 41.7004 66.52L42.2284 66.616H43.7164V67H42.2284ZM29.8924 66.808C31.5884 66.808 33.1084 66.232 34.4524 65.08C35.8284 63.896 36.5644 62.76 36.6604 61.672V55.864C35.7964 55.8 34.9164 55.768 34.0204 55.768C33.1564 55.768 32.2924 55.816 31.4284 55.912C28.9964 56.2 27.4124 56.744 26.6764 57.544C25.9404 58.344 25.5724 59.448 25.5724 60.856C25.5724 61.112 25.5884 61.4 25.6204 61.72C25.9084 65.112 27.3324 66.808 29.8924 66.808ZM50.4855 40.744V43H54.2775V43.384H50.4855V67H47.1255V43.384H46.1175V43H47.1255V40.744C47.1255 37.256 47.8775 34.776 49.3815 33.304C50.8855 31.8 53.3175 31.032 56.6775 31V31.384C54.4695 31.416 52.8855 32.168 51.9255 33.64C50.9655 35.08 50.4855 37.448 50.4855 40.744ZM61.4944 31V54.904L72.0544 43H72.5344L64.7104 51.832L75.0304 67H71.6704L62.7904 53.944L61.4944 55.432V67H58.1344V31H61.4944ZM97.9628 67C95.7868 67 94.2988 66.584 93.4988 65.752C92.7628 65.048 92.3948 64.44 92.3948 63.928V62.92C90.8268 65.768 88.3148 67.192 84.8588 67.192C80.8268 67.192 78.5388 65.368 77.9948 61.72C77.9308 61.336 77.8988 60.952 77.8988 60.568C77.8988 60.152 77.9628 59.704 78.0908 59.224C78.2188 58.744 78.5868 58.216 79.1948 57.64C80.4108 56.488 83.0828 55.784 87.2108 55.528C88.2348 55.432 89.1788 55.384 90.0428 55.384C90.9068 55.384 91.6908 55.416 92.3948 55.48V47.512C92.3308 47.48 92.3308 47.336 92.3948 47.08C92.4588 46.792 92.3948 46.44 92.2028 46.024C92.0428 45.576 91.8188 45.144 91.5308 44.728C91.2428 44.312 90.7308 43.96 89.9948 43.672C89.2587 43.352 88.2988 43.192 87.1148 43.192C85.9308 43.192 84.5388 43.416 82.9388 43.864C81.3708 44.28 80.2188 44.696 79.4828 45.112L79.2908 44.776C82.1388 43.464 85.0348 42.808 87.9788 42.808C91.2748 42.808 93.4508 43.4 94.5068 44.584C95.3388 45.512 95.7548 46.488 95.7548 47.512V63.592C95.7548 64.52 95.9308 65.24 96.2828 65.752C96.6668 66.232 97.0508 66.488 97.4348 66.52L97.9628 66.616H99.4508V67H97.9628ZM85.6268 66.808C87.3228 66.808 88.8428 66.232 90.1868 65.08C91.5628 63.896 92.2988 62.76 92.3948 61.672V55.864C91.5308 55.8 90.6508 55.768 89.7548 55.768C88.8908 55.768 88.0268 55.816 87.1628 55.912C84.7308 56.2 83.1468 56.744 82.4108 57.544C81.6748 58.344 81.3068 59.448 81.3068 60.856C81.3068 61.112 81.3228 61.4 81.3548 61.72C81.6428 65.112 83.0668 66.808 85.6268 66.808ZM111.26 45.064V44.056C109.82 44.632 108.508 45.8 107.324 47.56C106.14 49.288 105.516 50.92 105.452 52.456V67H102.092V43H105.452V50.632C105.964 48.776 106.94 47.032 108.38 45.4C109.82 43.736 111.452 42.872 113.276 42.808H113.468C114.108 42.808 114.636 43.032 115.052 43.48C115.5 43.896 115.724 44.424 115.724 45.064C115.724 45.704 115.5 46.232 115.052 46.648C114.636 47.064 114.108 47.272 113.468 47.272C112.828 47.272 112.3 47.064 111.884 46.648C111.468 46.232 111.26 45.704 111.26 45.064ZM119.102 43.384V43H120.11V38.2H123.47V43H130.814V43.384H123.47V60.856C123.47 62.936 123.694 64.44 124.142 65.368C124.622 66.296 125.598 66.76 127.07 66.76C128.574 66.76 130.094 66.456 131.63 65.848L131.774 66.232C130.174 66.84 128.334 67.144 126.254 67.144C124.206 67.144 122.67 66.728 121.646 65.896C120.622 65.032 120.11 63.336 120.11 60.808V43.384H119.102ZM144.359 67.192C140.999 67.192 138.263 66.232 136.151 64.312C134.039 62.392 132.983 59.432 132.983 55.432C132.983 51.432 134.071 48.328 136.247 46.12C138.455 43.912 141.239 42.808 144.599 42.808C147.991 42.808 150.743 43.768 152.855 45.688C154.967 47.608 156.023 50.568 156.023 54.568C156.023 58.568 154.919 61.672 152.711 63.88C150.535 66.088 147.751 67.192 144.359 67.192ZM144.695 43.192C142.263 43.192 140.247 44.28 138.647 46.456C137.047 48.6 136.247 51.608 136.247 55.48C136.247 59.32 136.983 62.168 138.455 64.024C139.927 65.88 141.879 66.808 144.311 66.808C146.743 66.808 148.759 65.736 150.359 63.592C151.959 61.416 152.759 58.408 152.759 54.568C152.759 50.696 152.023 47.832 150.551 45.976C149.079 44.12 147.127 43.192 144.695 43.192Z" fill="black"/>
</svg>
